<?xml version="1.0" standalone="no"?>
<!DOCTYPE svg PUBLIC "-//W3C//DTD SVG 20010904//EN"
 "http://www.w3.org/TR/2001/REC-SVG-20010904/DTD/svg10.dtd">
<svg version="1.0" xmlns="http://www.w3.org/2000/svg"
 width="1024.000000pt" height="1024.000000pt" viewBox="0 0 1024.000000 1024.000000"
 preserveAspectRatio="xMidYMid meet">

<g transform="translate(0.000000,1024.000000) scale(0.100000,-0.100000)"
fill="#000000" stroke="none">
<path d="M4970 10063 c-140 -24 -310 -96 -515 -220 -82 -50 -204 -118 -270
-151 -153 -78 -365 -208 -491 -302 -138 -103 -383 -349 -486 -490 -319 -432
-552 -993 -713 -1716 -25 -115 -55 -243 -65 -284 -29 -117 -58 -268 -89 -480
-34 -226 -49 -274 -204 -657 -59 -145 -124 -320 -146 -390 -140 -458 -187
-1029 -112 -1366 25 -109 109 -293 185 -402 23 -33 45 -65 49 -71 4 -7 -10
-23 -33 -39 -52 -36 -96 -104 -111 -169 -9 -44 -9 -62 5 -108 9 -31 16 -59 16
-63 0 -16 -123 6 -234 43 -64 20 -116 35 -116 32 0 -16 152 -189 248 -283
l111 -107 -45 0 c-141 0 -368 84 -633 234 -35 20 -66 34 -68 32 -9 -9 223
-234 287 -278 81 -57 241 -145 340 -188 41 -18 79 -36 83 -40 5 -4 -29 -31
-75 -58 -46 -28 -116 -73 -156 -100 l-74 -50 154 6 c306 10 530 -44 651 -156
15 -14 27 -31 27 -37 0 -6 -38 -45 -84 -86 l-84 -74 97 -7 c295 -22 520 -126
647 -299 20 -28 40 -47 44 -42 3 4 22 43 40 86 18 43 37 80 41 83 13 8 80 -24
124 -61 173 -141 389 -588 398 -821 1 -48 5 -60 13 -51 19 20 61 137 79 220 9
42 21 77 25 77 24 0 86 -119 110 -213 18 -71 18 -72 30 -42 32 82 32 314 0
580 -6 44 -10 95 -10 115 l0 35 20 -25 c11 -14 52 -80 92 -147 40 -68 76 -123
81 -123 4 0 7 24 8 53 1 127 17 287 29 302 8 9 25 15 39 13 21 -2 32 -16 58
-68 63 -127 72 -234 52 -614 -6 -114 -8 -218 -5 -231 4 -15 28 -38 61 -60 30
-19 55 -38 55 -42 0 -4 -25 -32 -55 -63 l-55 -55 39 -125 c21 -69 58 -188 82
-265 l44 -139 6 49 c4 28 24 196 44 375 21 179 40 328 44 332 3 4 118 -167
255 -379 l250 -385 16 33 c10 19 82 170 161 337 78 166 146 302 150 302 3 0
16 -21 27 -47 45 -103 230 -505 235 -509 2 -3 37 129 77 292 68 281 72 300 65
373 -6 72 -9 78 -46 112 -21 20 -39 41 -39 47 0 11 71 82 82 82 4 0 8 34 8 76
l0 76 -40 15 c-42 17 -52 40 -22 49 63 20 64 21 47 60 -20 48 -19 75 5 163 45
163 113 242 154 178 12 -18 13 -43 6 -142 -16 -211 -17 -296 -6 -292 29 10 97
135 151 280 32 86 60 155 62 153 2 -1 -6 -77 -17 -167 -41 -343 -80 -782 -68
-769 3 3 40 73 83 155 69 133 142 251 150 243 2 -2 8 -36 14 -77 13 -81 46
-189 64 -208 9 -9 13 4 15 55 8 226 182 601 362 781 61 60 139 107 164 98 8
-3 29 -45 47 -93 33 -84 34 -86 49 -63 127 191 338 301 635 331 l125 12 -81
75 -81 76 38 38 c56 56 180 112 304 138 87 19 138 23 302 23 l196 1 -71 48
c-40 26 -110 71 -156 99 l-85 52 35 15 c261 117 443 233 587 379 57 57 101
106 98 109 -3 3 -34 -11 -69 -30 -236 -132 -446 -212 -587 -223 l-85 -6 126
128 c194 198 267 296 191 255 -62 -33 -312 -86 -312 -66 0 2 7 30 15 62 10 35
13 74 9 98 -11 69 -57 143 -110 176 l-32 20 55 82 c66 100 154 277 183 372 47
154 61 246 67 432 6 199 -3 301 -44 503 -53 261 -128 466 -278 755 -152 295
-210 458 -240 684 -34 249 -58 378 -131 706 -96 435 -143 619 -211 830 -232
716 -533 1196 -953 1522 -165 127 -304 211 -576 346 -104 52 -254 127 -334
168 -249 127 -460 179 -620 152z m270 -154 c85 -22 260 -106 365 -175 39 -25
61 -42 50 -38 -188 70 -377 126 -472 141 -104 15 -119 15 -210 0 -106 -17
-265 -67 -405 -127 -49 -21 -88 -36 -88 -34 0 10 192 130 270 169 190 95 310
110 490 64z m43 -225 c70 -16 211 -76 252 -107 16 -12 -3 -11 -90 9 -164 35
-308 47 -429 34 -93 -10 -233 -38 -281 -56 -17 -7 -18 -6 -7 8 19 23 175 97
239 112 80 20 229 19 316 0z m967 -250 c400 -254 686 -601 910 -1104 116 -261
221 -575 299 -893 73 -295 179 -822 168 -833 -1 -2 -16 49 -31 114 -108 443
-355 1232 -489 1563 -196 479 -552 897 -1062 1244 -55 38 -104 73 -110 78 -23
22 218 -107 315 -169z m-1991 162 c-2 -2 -69 -51 -149 -108 -170 -121 -344
-264 -451 -370 -65 -64 -78 -83 -87 -124 -6 -27 -21 -94 -33 -149 -21 -95 -46
-167 -35 -100 3 17 8 68 11 115 6 88 23 223 31 251 4 16 173 156 284 236 105
75 469 287 429 249z m912 -22 c100 -30 211 -93 407 -232 35 -24 61 -46 59 -48
-1 -2 -50 19 -108 47 -57 28 -151 67 -209 87 -95 33 -115 36 -215 37 -90 0
-123 -4 -183 -24 -84 -27 -297 -129 -394 -189 -38 -22 -68 -39 -68 -37 0 7
218 174 290 222 114 76 164 103 238 129 80 28 110 29 183 8z m89 -280 c73 -16
260 -105 334 -158 27 -20 44 -36 37 -36 -7 0 -56 13 -109 29 -156 48 -257 65
-382 65 -128 1 -186 -12 -335 -70 -96 -38 -399 -187 -465 -229 -72 -45 -26 8
81 94 108 88 234 168 365 234 189 94 296 110 474 71z m-1506 -242 c-5 -42 -11
-62 -20 -62 -8 0 -14 5 -14 12 0 16 33 118 37 115 2 -2 0 -31 -3 -65z m1442
41 c46 -15 159 -81 151 -89 -1 -2 -34 7 -73 21 -100 34 -165 39 -271 21 -97
-17 -320 -87 -429 -136 -37 -17 -69 -28 -72 -26 -6 6 148 106 213 138 156 78
368 109 481 71z m-1751 -140 c-7 -55 -13 -67 -94 -170 -151 -196 -286 -430
-376 -653 -97 -241 -304 -882 -425 -1315 -63 -225 -56 -160 21 195 63 294 111
481 182 705 121 386 309 787 488 1042 54 78 202 263 207 259 2 -2 0 -30 -3
-63z m1700 17 c32 -5 92 -19 132 -31 l73 -22 -6 -37 c-5 -32 -2 -40 21 -58 36
-28 57 -28 94 3 l30 26 63 -32 c35 -18 135 -64 223 -104 283 -127 599 -277
627 -297 21 -15 35 -43 63 -130 39 -120 41 -159 6 -90 -33 65 -98 130 -161
162 -62 31 -260 104 -266 98 -2 -3 39 -32 92 -67 64 -42 130 -98 203 -174 97
-99 108 -113 100 -134 -6 -16 -4 -35 5 -58 11 -27 22 -35 49 -40 21 -4 44 -2
57 5 21 11 31 4 132 -96 234 -231 345 -387 529 -741 55 -105 79 -162 79 -186
0 -25 7 -41 23 -54 12 -10 29 -33 36 -50 11 -28 11 -38 -3 -73 -46 -115 10
-235 120 -258 35 -7 40 -12 66 -77 89 -216 334 -895 323 -895 -6 0 -95 168
-259 490 -80 157 -146 278 -146 269 0 -9 11 -68 25 -130 58 -259 97 -390 153
-524 107 -254 192 -525 192 -613 0 -19 -8 -46 -19 -60 -40 -59 -34 -144 15
-197 24 -26 26 -32 19 -94 -14 -143 -72 -336 -142 -474 -157 -312 -487 -586
-867 -721 -55 -20 -101 -34 -102 -33 -2 2 32 24 74 49 101 60 295 199 389 278
69 57 76 61 92 46 26 -23 68 -20 96 9 29 28 31 56 9 94 -16 27 -15 29 19 75
92 120 180 319 225 511 24 98 26 130 26 300 0 258 -38 451 -153 784 l-50 145
26 30 c20 24 24 37 20 69 -6 43 -45 92 -82 101 -24 6 -28 20 -111 333 l-27
102 27 31 c48 58 24 150 -48 184 -30 14 -36 25 -63 108 -17 51 -46 134 -64
185 -31 87 -32 93 -16 111 34 37 14 88 -36 94 -25 3 -32 13 -68 97 -43 101
-81 165 -163 274 -45 61 -51 75 -51 117 0 65 -31 100 -89 100 -29 0 -45 5 -53
19 -6 10 -98 99 -204 197 -300 279 -363 337 -524 477 -143 124 -150 132 -147
164 3 26 -3 39 -26 63 -33 32 -77 39 -128 20 -23 -9 -46 -1 -188 67 -107 51
-176 91 -207 119 -86 79 -165 102 -229 69 -33 -17 -79 -72 -160 -193 -48 -73
-57 -81 -80 -76 -46 10 -50 13 -50 36 0 32 -38 68 -72 68 -43 0 -64 -15 -82
-59 -11 -30 -27 -46 -56 -61 -23 -12 -127 -73 -232 -136 -105 -62 -194 -114
-198 -114 -4 0 -13 7 -20 15 -7 8 -27 15 -45 15 -25 0 -41 -9 -69 -41 -40 -44
-58 -81 -50 -102 3 -9 -30 -42 -88 -88 -51 -40 -134 -113 -185 -162 l-92 -88
-20 20 c-27 27 -56 27 -75 -1 -22 -31 -20 -45 9 -74 l26 -26 -135 -261 c-89
-175 -138 -261 -147 -258 -45 13 -82 4 -110 -27 -16 -18 -29 -43 -29 -56 0
-28 33 -72 60 -81 18 -6 17 -9 -11 -77 -38 -93 -111 -322 -135 -420 -11 -50
-23 -78 -31 -78 -8 0 -25 -11 -39 -25 -28 -28 -26 -59 7 -85 18 -15 17 -21
-30 -210 -59 -236 -121 -441 -136 -445 -5 -2 -23 -6 -38 -10 -67 -14 -101
-103 -59 -156 18 -22 18 -24 -14 -123 -18 -56 -42 -153 -54 -216 -12 -63 -23
-124 -25 -135 -3 -11 -18 -28 -35 -37 -23 -13 -30 -24 -30 -47 0 -27 21 -61
38 -61 4 0 5 -61 4 -136 -4 -149 9 -289 38 -410 17 -71 17 -81 3 -96 -35 -39
-8 -131 43 -144 17 -4 33 -22 49 -53 43 -85 128 -195 217 -282 80 -79 88 -90
88 -124 0 -26 9 -50 27 -74 l28 -36 -30 19 c-223 141 -416 333 -531 528 -33
57 -35 66 -25 94 6 17 11 41 11 54 0 37 -38 88 -75 102 -39 13 -38 13 -60 116
-20 97 -20 102 10 102 30 0 62 30 71 65 13 53 -36 115 -91 115 -24 0 -25 3
-25 58 0 189 67 419 224 774 44 101 68 179 131 428 42 168 79 314 82 325 12
43 -11 1 -90 -166 -78 -163 -149 -300 -304 -582 -36 -65 -67 -116 -69 -114
-16 15 378 967 554 1339 54 115 63 127 88 130 32 3 45 38 24 63 -13 16 -9 24
174 365 70 129 146 257 168 285 149 178 310 332 460 438 32 22 54 45 50 49 -9
9 -217 -79 -296 -126 -25 -15 -76 -49 -112 -77 -36 -27 -64 -45 -62 -40 1 5
36 48 76 95 53 62 92 97 140 125 134 78 564 307 860 459 l304 154 52 -10 c31
-6 68 -7 89 -3 36 9 107 47 107 59 1 20 52 65 86 77 47 17 71 18 149 5z m783
-86 c86 -25 308 -126 347 -158 19 -16 18 -16 -11 -2 -93 45 -271 111 -439 163
l-110 33 63 -5 c35 -4 103 -17 150 -31z m-1871 -231 c-23 -43 -57 -69 -117
-88 -30 -10 -68 -27 -84 -38 -18 -13 -26 -15 -21 -6 32 53 54 71 117 95 40 15
77 37 90 53 27 33 35 24 15 -16z m1147 -147 l114 -54 4 -48 c3 -27 3 -51 2
-53 -2 -2 -51 17 -109 43 -58 25 -114 46 -123 46 -22 0 -200 -85 -224 -107
-16 -14 -26 -53 -14 -53 2 0 52 23 111 50 59 28 114 50 124 50 15 0 90 -29
203 -78 53 -24 47 -6 83 -252 14 -96 28 -188 31 -204 l6 -28 68 67 c90 89 99
135 37 196 -10 10 -16 54 -21 148 l-7 133 23 -7 c38 -12 109 -53 181 -106 49
-36 67 -55 67 -73 0 -13 11 -45 25 -71 28 -52 27 -73 -1 -30 -18 27 -63 61
-146 109 l-48 27 0 -30 c0 -27 11 -37 113 -105 148 -100 151 -102 181 -163 15
-29 30 -53 34 -53 5 0 28 34 51 75 24 41 46 75 50 75 12 0 141 -102 282 -223
263 -226 460 -448 537 -604 30 -60 34 -75 23 -85 -11 -11 -23 -1 -70 52 -105
120 -335 365 -431 458 -110 108 -312 282 -328 282 -14 0 -26 -40 -15 -49 4 -4
62 -52 127 -107 149 -124 497 -467 564 -556 88 -116 113 -226 72 -316 -53
-118 -257 -242 -613 -372 -61 -23 -114 -43 -115 -45 -2 -2 -7 -20 -12 -40 -7
-31 -6 -35 8 -31 10 3 62 19 117 36 257 78 583 199 769 284 69 32 82 35 94 22
13 -12 9 -18 -29 -42 -123 -78 -548 -247 -849 -338 -85 -26 -167 -51 -182 -56
-19 -6 -28 -5 -28 2 0 6 16 64 35 129 l35 118 -46 76 -46 76 -81 -44 -82 -43
3 -60 c2 -54 -3 -71 -61 -199 l-64 -140 -139 -32 c-307 -70 -363 -78 -448 -63
-74 12 -78 14 -92 48 -8 19 -12 37 -10 40 3 2 39 -1 81 -7 42 -6 94 -11 116
-11 34 0 367 60 421 76 15 4 64 74 52 74 -3 0 -85 -16 -182 -35 -242 -47 -357
-65 -422 -65 -90 0 -97 5 -120 75 -13 38 -48 101 -90 161 -39 53 -70 100 -70
104 0 8 -219 115 -224 109 -1 -2 -7 -20 -13 -39 -8 -30 -6 -43 20 -95 16 -33
40 -74 53 -92 16 -21 31 -66 45 -133 11 -55 19 -104 17 -109 -2 -5 -58 5 -125
21 l-123 30 0 94 c0 52 -2 94 -4 94 -10 0 -173 -95 -192 -112 -19 -16 -24 -17
-60 -5 l-39 14 -12 102 -12 103 -68 76 -68 76 -3 -152 c-2 -119 -5 -152 -16
-152 -21 0 -324 105 -461 160 -156 62 -185 77 -185 95 0 27 39 25 126 -9 123
-48 450 -148 434 -133 -3 3 -45 22 -94 43 -217 92 -326 200 -326 322 0 153
217 457 538 752 56 52 102 100 102 106 0 6 -6 17 -14 23 -10 8 -23 4 -54 -19
-49 -35 -289 -242 -387 -334 -38 -36 -73 -65 -77 -66 -58 -2 188 290 375 447
85 71 107 84 107 63 0 -8 140 -221 160 -244 5 -4 27 50 49 120 23 71 45 134
49 140 7 11 191 143 323 232 46 31 79 60 82 73 4 13 5 25 3 27 -8 7 -88 -40
-241 -143 l-158 -106 7 38 c3 21 6 54 6 73 0 33 6 38 88 92 48 32 143 91 212
132 l125 74 6 -216 c5 -181 9 -227 26 -276 25 -72 21 -82 63 204 18 118 37
250 44 293 l11 78 120 64 c66 35 121 64 122 64 2 1 54 -23 117 -53z m722 -419
c7 -7 -29 -107 -38 -107 -7 0 -58 104 -58 118 0 6 89 -4 96 -11z m-1750 -169
l31 -63 -28 -84 c-16 -46 -30 -86 -33 -88 -2 -2 -18 19 -35 46 l-32 50 12 78
c12 74 30 123 47 123 4 0 22 -28 38 -62z m-1679 -1310 c-3 -8 -6 -5 -6 6 -1
11 2 17 5 13 3 -3 4 -12 1 -19z m3393 -200 c-6 -68 -13 -130 -16 -139 -3 -13
-93 -44 -101 -35 -1 1 23 62 53 136 31 74 58 143 61 153 13 43 14 -1 3 -115z
m-1885 45 c3 -27 7 -58 9 -70 2 -13 -2 -23 -9 -23 -13 0 -25 51 -25 108 0 49
18 38 25 -15z m692 -53 l81 -85 7 -83 7 -84 -24 7 c-13 4 -26 10 -31 14 -9 9
-137 312 -137 325 0 6 3 6 8 1 4 -6 44 -48 89 -95z m2409 -48 l6 -97 -52 -70
c-250 -334 -551 -567 -1095 -849 -71 -37 -133 -73 -137 -79 -4 -7 -8 -25 -8
-42 0 -36 -5 -42 -52 -77 -20 -15 -46 -44 -58 -63 -42 -68 -18 -153 40 -141
25 4 26 3 22 -27 -3 -18 -7 -26 -9 -19 -5 13 -42 17 -44 5 -1 -5 -3 -18 -4
-30 -1 -12 -5 -28 -8 -37 -6 -16 18 -49 41 -57 7 -3 -3 -109 -29 -314 -41
-325 -78 -649 -76 -652 2 -1 165 122 180 136 4 4 56 254 116 557 60 302 115
573 121 602 12 52 12 52 183 189 95 75 279 226 411 336 131 109 235 192 230
185 -4 -7 -60 -81 -124 -163 l-118 -150 -77 -385 c-157 -786 -151 -761 -188
-793 -53 -46 -91 -72 -82 -56 5 7 19 31 32 52 20 31 30 78 53 235 40 276 98
647 111 710 6 30 9 55 7 58 -3 2 -45 -42 -95 -99 l-90 -103 -56 -219 -56 -219
-45 -38 c-70 -60 -82 -142 -23 -150 l24 -3 -73 -297 -73 -297 -108 -138 c-166
-212 -342 -447 -338 -451 6 -6 315 252 480 401 165 149 459 443 556 556 l55
64 30 -16 29 -16 -27 -1 c-58 0 -59 -82 -2 -96 20 -5 31 -2 41 11 15 22 17 61
3 70 -15 10 -2 25 22 25 12 0 37 12 56 27 39 29 38 26 -26 -67 -223 -325 -722
-819 -1242 -1231 -109 -86 -160 -123 -164 -118 -1 2 8 168 20 369 28 458 54
965 54 1051 0 61 2 67 25 77 14 6 33 28 42 47 16 34 16 38 -1 70 -11 19 -28
37 -39 41 -18 6 -19 12 -14 68 4 33 10 181 13 329 4 147 11 267 16 267 17 0
48 41 48 64 0 14 -11 33 -25 44 -14 11 -25 30 -25 43 0 22 13 28 133 66 72 23
136 44 142 45 5 2 12 -10 15 -26 3 -16 13 -34 22 -40 23 -14 74 34 89 84 10
32 18 39 72 59 227 86 511 253 700 411 139 116 297 302 389 456 29 48 33 51
40 33 5 -11 11 -64 14 -117z m-3959 77 c16 -30 20 -46 13 -63 -13 -34 9 -70
47 -76 24 -4 45 -23 96 -85 134 -166 333 -335 541 -459 102 -61 303 -158 368
-178 35 -10 36 -13 35 -52 -2 -38 0 -41 26 -44 16 -2 39 5 56 17 l29 21 148
-52 c82 -28 152 -54 155 -57 4 -3 12 -143 18 -311 7 -168 19 -424 27 -569 14
-237 14 -265 0 -280 -29 -32 -30 -74 -3 -107 25 -30 25 -31 51 -483 l25 -454
-38 -43 c-41 -46 -64 -106 -55 -142 4 -12 3 -22 -1 -22 -10 0 -167 124 -335
266 -378 318 -748 698 -938 964 -166 231 -279 471 -352 745 -28 104 -71 306
-70 330 1 5 20 -42 44 -105 24 -63 62 -158 85 -210 34 -77 41 -102 36 -132 -8
-46 8 -78 39 -78 20 0 32 -14 65 -74 59 -107 166 -264 267 -391 113 -142 480
-508 704 -702 170 -148 370 -308 370 -298 0 7 -153 210 -306 406 -67 86 -128
167 -137 180 -8 13 -47 161 -86 329 -40 168 -104 435 -142 593 l-71 288 -60
71 c-115 137 -141 165 -133 139 4 -14 13 -68 20 -120 12 -90 11 -97 -6 -114
-11 -10 -19 -24 -19 -32 0 -17 27 -45 45 -45 16 0 14 10 61 -355 29 -227 40
-289 59 -327 13 -27 21 -48 17 -48 -4 0 -25 17 -48 38 l-41 38 -46 240 c-26
131 -74 390 -108 574 -33 184 -63 339 -67 345 -4 6 -56 76 -116 155 -60 80
-114 152 -120 160 -12 17 -8 14 184 -152 192 -165 405 -346 516 -437 l90 -74
74 -363 c68 -340 72 -365 56 -382 -26 -29 -21 -70 12 -89 27 -15 30 -25 61
-187 18 -94 39 -180 46 -192 15 -23 175 -147 182 -140 7 6 -122 1006 -173
1348 l-18 117 -170 92 c-523 281 -845 546 -1075 885 l-41 62 36 81 c20 45 40
81 43 81 3 0 16 -18 28 -41z m-1019 -1109 c-6 -47 -11 -197 -11 -335 -1 -223
2 -261 22 -355 69 -323 194 -569 405 -796 36 -40 66 -78 66 -85 0 -28 49 -116
75 -137 32 -25 72 -28 101 -8 19 14 26 11 85 -28 85 -57 313 -195 470 -284
122 -69 520 -329 489 -319 -47 15 -635 263 -685 289 -33 17 -79 44 -102 60
-24 16 -43 25 -43 21 0 -14 130 -137 203 -192 95 -71 270 -185 402 -261 114
-65 300 -189 371 -247 23 -18 77 -86 121 -151 142 -209 142 -209 2 -86 -156
138 -286 235 -414 309 -439 255 -710 455 -1009 745 -378 367 -544 666 -590
1065 l-12 110 -29 -85 c-27 -80 -29 -94 -29 -255 0 -93 3 -206 7 -250 5 -44 6
-77 3 -74 -15 15 -48 262 -53 399 -8 210 18 434 83 725 30 134 76 316 80 313
1 -2 -2 -41 -8 -88z m5936 -175 c76 -355 97 -490 103 -695 4 -142 2 -215 -11
-316 -26 -205 -31 -199 -31 39 0 204 -2 230 -25 317 l-24 95 -7 -86 c-41 -502
-461 -1043 -1199 -1545 -58 -39 -186 -120 -285 -179 -99 -59 -205 -125 -237
-146 -46 -32 -301 -238 -318 -258 -3 -3 -20 -19 -39 -36 -32 -29 -33 -29 -21
-5 26 50 144 225 179 263 59 65 210 173 406 289 267 158 486 308 615 423 106
93 106 118 1 50 -85 -55 -188 -104 -487 -230 -121 -52 -256 -110 -300 -130
-43 -20 -72 -29 -64 -22 41 40 433 294 565 367 193 106 325 183 398 232 55 37
60 39 94 27 20 -6 57 -9 84 -6 104 13 164 68 138 128 -6 16 -19 33 -27 38 -13
7 -4 22 52 82 37 40 74 85 84 101 11 18 25 28 40 28 28 0 92 59 92 85 0 9 -4
25 -10 35 -8 14 1 41 43 122 60 116 108 256 134 386 19 98 25 485 10 667 -5
55 -6 98 -4 95 3 -3 26 -99 51 -215z m-890 128 c-15 -93 -78 -338 -111 -438
-53 -161 -198 -475 -219 -475 -3 0 0 9 6 19 21 39 12 91 -20 121 l-30 28 57
94 c84 138 183 342 254 525 35 90 65 163 67 163 2 0 0 -17 -4 -37z m-4043
-1007 c28 -29 36 -46 22 -46 -4 0 -30 24 -58 53 -27 29 -66 65 -85 81 -19 15
-7 8 28 -15 35 -24 77 -56 93 -73z m98 -150 c17 -68 13 -74 -14 -21 -13 27
-22 52 -19 57 11 18 22 6 33 -36z m-11 -495 c49 -33 118 -76 153 -96 55 -31
59 -35 29 -29 -72 14 -351 132 -365 154 -3 6 2 10 12 10 11 0 28 7 39 15 24
18 26 18 132 -54z m-1074 -229 c-24 -111 -11 -184 55 -317 27 -55 47 -102 44
-105 -8 -8 -93 90 -144 168 -79 121 -77 202 8 293 25 27 48 47 50 45 3 -2 -3
-40 -13 -84z m5957 -30 c27 -55 22 -111 -16 -186 -33 -66 -130 -190 -152 -194
-8 -2 -14 0 -12 5 2 4 23 46 46 93 63 129 72 197 47 355 l-7 40 37 -35 c20
-19 46 -54 57 -78z m-5476 -27 c8 -18 15 -41 15 -52 0 -10 -8 -2 -20 22 -11
22 -32 58 -46 80 l-27 40 31 -29 c17 -16 38 -44 47 -61z m-243 -213 c16 -29
57 -89 90 -134 33 -44 57 -82 55 -84 -5 -6 -142 143 -192 209 -54 70 -96 167
-101 234 l-6 58 62 -115 c34 -63 75 -139 92 -168z m1531 115 c31 -22 57 -42
57 -44 0 -6 -105 53 -157 89 -24 16 -43 31 -43 34 0 8 84 -38 143 -79z m2476
65 c-41 -32 -143 -98 -169 -111 -44 -21 45 51 113 91 67 39 94 49 56 20z
m1123 -55 c-14 -31 -32 -57 -40 -57 -8 0 -12 3 -10 8 9 19 71 112 74 109 1 -1
-9 -28 -24 -60z m384 -6 c-35 -88 -102 -183 -196 -281 -88 -92 -88 -88 8 46
35 49 95 138 133 198 39 60 72 106 75 103 3 -2 -6 -32 -20 -66z m-1556 -94
c-36 -34 -104 -96 -150 -138 -65 -58 -93 -92 -121 -145 -34 -66 -69 -95 -69
-58 0 24 63 132 102 175 48 52 279 230 298 229 3 0 -24 -28 -60 -63z m-2411
-45 c42 -31 97 -78 122 -103 46 -48 119 -172 107 -184 -16 -16 -46 9 -70 58
-38 77 -73 116 -173 200 -49 41 -101 87 -115 102 l-25 29 39 -23 c21 -12 73
-48 115 -79z m-1141 19 c45 -24 87 -66 102 -105 6 -16 9 -29 8 -30 -2 -1 -37
34 -79 76 -42 43 -75 78 -72 78 2 0 20 -9 41 -19z m4636 -45 c-7 -12 -30 -34
-50 -50 l-37 -29 41 52 c23 29 42 58 42 64 0 7 4 6 9 -2 6 -9 4 -22 -5 -35z
m-2634 -142 c0 -8 -4 -12 -10 -9 -5 3 -10 10 -10 16 0 5 5 9 10 9 6 0 10 -7
10 -16z m-2280 -203 c33 -32 -60 31 -132 90 -60 49 -75 66 -66 76 10 13 43
-15 198 -166z m5328 132 c-18 -19 -69 -62 -113 -95 l-80 -60 102 102 c61 61
106 99 113 95 8 -5 1 -19 -22 -42z m-2118 -12 c-30 -16 -64 -38 -74 -50 -21
-23 -50 -29 -44 -8 4 12 144 87 163 86 6 0 -15 -13 -45 -28z m-161 -133 c-1
-21 -37 -94 -38 -78 -1 26 20 90 29 90 6 0 10 -6 9 -12z m1431 -2 c0 -8 -316
-184 -449 -250 -156 -78 -402 -189 -407 -183 -3 2 42 37 98 76 122 86 224 137
528 265 248 105 230 98 230 92z m-3492 -130 c149 -63 309 -137 355 -165 90
-54 215 -141 204 -141 -21 0 -260 103 -405 175 -163 80 -427 226 -447 247 -13
14 -29 20 293 -116z m747 29 c63 -46 202 -181 194 -189 -7 -7 -207 154 -259
209 -52 55 -32 49 65 -20z m1698 -20 c-62 -57 -154 -133 -203 -169 -28 -21 29
50 82 101 55 53 180 145 187 137 3 -2 -27 -34 -66 -69z m1697 -280 c-32 -67
-43 -54 -12 13 15 33 28 53 30 45 2 -7 -6 -34 -18 -58z m-4627 -114 c11 -8 23
-24 29 -34 7 -14 -80 49 -112 81 -12 12 67 -32 83 -47z"/>
<path d="M2906 7031 c-23 -25 -13 -59 20 -67 46 -12 72 37 38 70 -21 21 -37
20 -58 -3z"/>
<path d="M7540 4215 c-15 -19 -4 -52 21 -60 26 -8 49 11 49 40 0 34 -47 48
-70 20z"/>
<path d="M7464 4086 c-7 -19 3 -36 22 -36 10 0 14 8 12 22 -4 26 -26 36 -34
14z"/>
<path d="M5034 7856 c-47 -21 -74 -61 -74 -113 0 -38 5 -50 34 -79 29 -29 41
-34 81 -34 40 0 52 5 81 34 29 29 34 41 34 79 0 50 -33 101 -73 112 -47 14
-53 14 -83 1z"/>
<path d="M6184 7374 c-54 -36 -131 -93 -171 -127 -41 -34 -82 -66 -92 -72 -26
-15 -281 -272 -342 -344 -30 -36 -47 -61 -39 -56 41 24 371 308 567 488 224
206 232 217 77 111z"/>
<path d="M4994 7266 c-29 -29 -34 -41 -34 -81 0 -40 5 -52 34 -81 28 -28 41
-34 78 -34 50 0 82 18 103 60 28 53 11 120 -37 154 -12 9 -42 16 -66 16 -37 0
-50 -6 -78 -34z"/>
<path d="M3840 7218 c0 -2 26 -70 58 -151 l57 -148 69 -29 c38 -17 72 -28 74
-25 8 7 -59 107 -155 233 -81 105 -103 131 -103 120z"/>
<path d="M4158 7209 c-12 -6 -18 -22 -18 -45 0 -27 5 -37 25 -46 53 -24 100
46 57 85 -21 19 -39 21 -64 6z"/>
<path d="M6482 6844 c-28 -19 -28 -58 -1 -78 23 -16 47 -12 67 12 17 22 15 39
-8 62 -24 24 -29 24 -58 4z"/>
<path d="M3572 6838 c-23 -23 -11 -74 18 -78 52 -8 83 28 61 69 -13 23 -59 29
-79 9z"/>
<path d="M5195 6717 c-58 -58 -65 -137 -13 -137 22 0 75 25 101 48 25 22 21
68 -8 97 -32 32 -41 31 -80 -8z"/>
<path d="M4468 6323 c7 -3 16 -2 19 1 4 3 -2 6 -13 5 -11 0 -14 -3 -6 -6z"/>
<path d="M5592 4698 c-18 -18 -14 -46 7 -58 25 -13 48 -4 56 21 12 38 -35 65
-63 37z"/>
<path d="M5504 3544 c-8 -33 15 -59 44 -50 46 15 34 76 -14 76 -17 0 -25 -7
-30 -26z"/>
<path d="M4540 4810 c-39 -39 -14 -100 43 -100 27 0 57 32 57 60 0 21 -41 60
-63 60 -9 0 -26 -9 -37 -20z"/>
<path d="M4600 3560 c-16 -31 4 -62 38 -58 19 2 28 10 30 26 7 47 -47 72 -68
32z"/>
<path d="M7322 3518 c-30 -30 3 -77 40 -57 30 16 16 69 -17 69 -6 0 -16 -5
-23 -12z"/>
<path d="M941 4307 c-24 -55 -26 -112 -8 -255 l12 -94 54 109 53 109 -45 89
-45 90 -21 -48z"/>
<path d="M9227 4115 c-92 -24 -99 -29 -198 -123 l-57 -54 19 -66 c10 -35 20
-66 21 -67 4 -4 256 209 307 259 29 29 42 50 38 60 -8 20 -22 19 -130 -9z"/>
<path d="M8834 4088 c-17 -18 -79 -94 -139 -168 l-108 -134 27 -136 c38 -188
45 -210 61 -210 16 0 21 18 29 105 4 41 27 118 74 240 110 288 123 335 93 335
-4 0 -21 -15 -37 -32z"/>
<path d="M1234 4100 c3 -8 30 -100 61 -205 31 -104 62 -195 68 -202 7 -6 91
-46 187 -87 136 -59 176 -72 178 -61 4 17 1 21 -257 306 -230 255 -243 268
-237 249z"/>
<path d="M9405 3486 c-44 -20 -60 -37 -125 -132 -40 -60 -89 -131 -108 -157
-31 -45 -36 -77 -13 -77 20 0 325 365 316 380 -9 14 -13 13 -70 -14z"/>
<path d="M876 3240 c-27 -11 -53 -23 -58 -28 -10 -10 22 -103 38 -109 14 -5
105 39 122 59 13 17 -20 98 -40 98 -7 -1 -35 -10 -62 -20z"/>
<path d="M1830 2204 c-91 -6 -198 -13 -238 -13 l-74 -1 -114 -110 c-62 -61
-165 -161 -229 -222 -63 -61 -113 -113 -111 -115 2 -2 39 7 82 22 44 14 210
64 369 111 l290 86 68 71 c38 40 91 98 119 130 45 51 48 57 26 55 -12 0 -97
-7 -188 -14z"/>
</g>
</svg>
