<?xml version="1.0" encoding="iso-8859-1"?>
<!-- Uploaded to: SVG Repo, www.svgrepo.com, Generator: SVG Repo Mixer Tools -->
<svg fill="#000000" height="800px" width="800px" version="1.1" id="Layer_1" xmlns="http://www.w3.org/2000/svg" xmlns:xlink="http://www.w3.org/1999/xlink" 
	 viewBox="0 0 512 512" xml:space="preserve">
<g>
	<g>
		<path d="M414.379,69.632C369.477,24.73,309.775,0,246.271,0c-38.498,0-76.74,9.42-110.594,27.242
			c-32.758,17.245-61.463,42.317-83.01,72.506l-8.352,11.702l67.734,57.773l-2.856,4.076l-2.399,3.239l0.112,0.027L27.988,289.223
			l41.448-10.971c51.966-13.757,91.934-10.007,113.712-5.631c-2.289,6.159-3.546,12.815-3.546,19.761
			c0,21.858,12.402,40.863,30.532,50.38c-6.149,17.236-12.469,28.7-12.54,28.828L120.759,512h291.718l-45.984-170.601h94.046
			l4.083-9.462c12.866-29.806,19.39-61.498,19.39-94.198C484.012,174.238,459.283,114.535,414.379,69.632z M204.317,245.505
			c-16.169-4.766-52.695-12.522-103.583-5.494l38.742-55.303c37.365,10.895,62.176,29.563,74.039,55.659
			C210.282,241.8,207.203,243.52,204.317,245.505z M236.473,266.855c14.075,0,25.525,11.45,25.525,25.525
			s-11.45,25.525-25.525,25.525s-25.525-11.45-25.525-25.525S222.398,266.855,236.473,266.855z M224.993,386.816
			c0.76-1.37,8.837-16.133,16.142-37.771c29.185-2.381,52.209-26.876,52.209-56.665c0-28.23-20.679-51.712-47.683-56.118
			c-6.317-17.749-16.595-33.267-30.676-46.235c-14.02-12.91-31.888-23.307-53.311-31.05c3.684-3.339,7.592-6.461,11.708-9.352
			c26.15-18.369,57.889-25.453,89.361-19.95c31.475,5.503,58.924,22.935,77.291,49.088c30.223,43.018,28.595,101.572-3.86,142.762
			l-5.967,5.697l24.135,89.539H208.607L224.993,386.816z M371.563,480.653H173.645l17.808-32.545H362.79L371.563,480.653z
			 M439.654,310.053h-60.145c8.067-17.793,12.746-37.148,13.507-56.769c1.292-33.249-8.16-65.249-27.331-92.538
			c-23.178-33.003-57.819-55.003-97.543-61.949c-39.727-6.949-79.779,1.996-112.78,25.179c-8.689,6.104-16.634,13.047-23.775,20.712
			l-44.673-38.103c39.049-47.356,97.607-75.237,159.356-75.237c113.806,0,206.393,92.587,206.393,206.393
			C452.665,262.704,448.293,286.98,439.654,310.053z"/>
	</g>
</g>
</svg>